<mxfile host="app.diagrams.net" modified="2024-05-23T18:04:22.644Z" agent="Mozilla/5.0 (Windows NT 10.0; Win64; x64) AppleWebKit/537.36 (KHTML, like Gecko) Chrome/124.0.0.0 Safari/537.36" etag="GleMjZUfUkPEnjZOTL7m" version="24.4.6" type="github">
  <diagram name="Page-1" id="5TPp5JwGsrBEKmmDr9T5">
    <mxGraphModel dx="950" dy="704" grid="0" gridSize="10" guides="1" tooltips="1" connect="1" arrows="1" fold="1" page="0" pageScale="1" pageWidth="850" pageHeight="1100" math="0" shadow="0">
      <root>
        <mxCell id="0" />
        <mxCell id="1" parent="0" />
        <mxCell id="g6YoqPQ8i0Uwu_3a4X_x-1" value="" style="ellipse;whiteSpace=wrap;html=1;" vertex="1" parent="1">
          <mxGeometry x="-22" y="124" width="254" height="142" as="geometry" />
        </mxCell>
        <mxCell id="g6YoqPQ8i0Uwu_3a4X_x-12" value="" style="edgeStyle=none;curved=1;rounded=0;orthogonalLoop=1;jettySize=auto;html=1;fontSize=12;startSize=8;endSize=8;" edge="1" parent="1" source="g6YoqPQ8i0Uwu_3a4X_x-2" target="g6YoqPQ8i0Uwu_3a4X_x-4">
          <mxGeometry relative="1" as="geometry">
            <Array as="points">
              <mxPoint x="106" y="388" />
            </Array>
          </mxGeometry>
        </mxCell>
        <mxCell id="g6YoqPQ8i0Uwu_3a4X_x-18" value="" style="edgeStyle=none;curved=1;rounded=0;orthogonalLoop=1;jettySize=auto;html=1;fontSize=12;startSize=8;endSize=8;" edge="1" parent="1" source="g6YoqPQ8i0Uwu_3a4X_x-2" target="g6YoqPQ8i0Uwu_3a4X_x-5">
          <mxGeometry relative="1" as="geometry" />
        </mxCell>
        <mxCell id="g6YoqPQ8i0Uwu_3a4X_x-2" value="Input the celcius temperature" style="shape=parallelogram;perimeter=parallelogramPerimeter;whiteSpace=wrap;html=1;fixedSize=1;" vertex="1" parent="1">
          <mxGeometry x="-10" y="299" width="232" height="68" as="geometry" />
        </mxCell>
        <mxCell id="g6YoqPQ8i0Uwu_3a4X_x-3" style="edgeStyle=none;curved=1;rounded=0;orthogonalLoop=1;jettySize=auto;html=1;exitX=1;exitY=0.5;exitDx=0;exitDy=0;fontSize=12;startSize=8;endSize=8;" edge="1" parent="1" source="g6YoqPQ8i0Uwu_3a4X_x-2" target="g6YoqPQ8i0Uwu_3a4X_x-2">
          <mxGeometry relative="1" as="geometry" />
        </mxCell>
        <mxCell id="g6YoqPQ8i0Uwu_3a4X_x-16" value="" style="edgeStyle=none;curved=1;rounded=0;orthogonalLoop=1;jettySize=auto;html=1;fontSize=12;startSize=8;endSize=8;" edge="1" parent="1" source="g6YoqPQ8i0Uwu_3a4X_x-4" target="g6YoqPQ8i0Uwu_3a4X_x-8">
          <mxGeometry relative="1" as="geometry" />
        </mxCell>
        <mxCell id="g6YoqPQ8i0Uwu_3a4X_x-4" value="&amp;nbsp;Calculate the fahrenheit temperature using (((9/5)*celcius temperature)+32)" style="rounded=0;whiteSpace=wrap;html=1;" vertex="1" parent="1">
          <mxGeometry x="-6" y="408" width="209" height="83" as="geometry" />
        </mxCell>
        <mxCell id="g6YoqPQ8i0Uwu_3a4X_x-5" value="Calculate the Kelvin temperature using (celcius temperature +273.15)" style="rounded=0;whiteSpace=wrap;html=1;" vertex="1" parent="1">
          <mxGeometry x="294" y="298" width="181" height="61" as="geometry" />
        </mxCell>
        <mxCell id="g6YoqPQ8i0Uwu_3a4X_x-6" value="End the program" style="ellipse;whiteSpace=wrap;html=1;" vertex="1" parent="1">
          <mxGeometry x="40" y="698" width="120" height="80" as="geometry" />
        </mxCell>
        <mxCell id="g6YoqPQ8i0Uwu_3a4X_x-7" value="Start the program to convert celcius to fahrenheit and to Kelvins" style="text;html=1;align=center;verticalAlign=middle;whiteSpace=wrap;rounded=0;fontSize=16;" vertex="1" parent="1">
          <mxGeometry x="78" y="183" width="60" height="30" as="geometry" />
        </mxCell>
        <mxCell id="g6YoqPQ8i0Uwu_3a4X_x-17" value="" style="edgeStyle=none;curved=1;rounded=0;orthogonalLoop=1;jettySize=auto;html=1;fontSize=12;startSize=8;endSize=8;" edge="1" parent="1" source="g6YoqPQ8i0Uwu_3a4X_x-8" target="g6YoqPQ8i0Uwu_3a4X_x-6">
          <mxGeometry relative="1" as="geometry" />
        </mxCell>
        <mxCell id="g6YoqPQ8i0Uwu_3a4X_x-8" value="Print the fahrenheit temperature and Kelvin temperature&amp;nbsp;" style="shape=parallelogram;perimeter=parallelogramPerimeter;whiteSpace=wrap;html=1;fixedSize=1;" vertex="1" parent="1">
          <mxGeometry x="-20" y="536" width="225" height="76" as="geometry" />
        </mxCell>
        <mxCell id="g6YoqPQ8i0Uwu_3a4X_x-19" value="" style="endArrow=none;html=1;rounded=0;fontSize=12;startSize=8;endSize=8;curved=1;" edge="1" parent="1">
          <mxGeometry width="50" height="50" relative="1" as="geometry">
            <mxPoint x="377" y="573" as="sourcePoint" />
            <mxPoint x="382" y="359" as="targetPoint" />
          </mxGeometry>
        </mxCell>
        <mxCell id="g6YoqPQ8i0Uwu_3a4X_x-22" value="" style="edgeStyle=none;orthogonalLoop=1;jettySize=auto;html=1;rounded=0;fontSize=12;startSize=8;endSize=8;curved=1;entryX=1;entryY=0.5;entryDx=0;entryDy=0;" edge="1" parent="1" target="g6YoqPQ8i0Uwu_3a4X_x-8">
          <mxGeometry width="120" relative="1" as="geometry">
            <mxPoint x="380" y="573" as="sourcePoint" />
            <mxPoint x="350" y="462" as="targetPoint" />
            <Array as="points" />
          </mxGeometry>
        </mxCell>
        <mxCell id="g6YoqPQ8i0Uwu_3a4X_x-23" value="" style="edgeStyle=none;orthogonalLoop=1;jettySize=auto;html=1;rounded=0;fontSize=12;startSize=8;endSize=8;curved=1;exitX=0.5;exitY=1;exitDx=0;exitDy=0;" edge="1" parent="1" source="g6YoqPQ8i0Uwu_3a4X_x-1" target="g6YoqPQ8i0Uwu_3a4X_x-2">
          <mxGeometry width="120" relative="1" as="geometry">
            <mxPoint x="97" y="268" as="sourcePoint" />
            <mxPoint x="343" y="484" as="targetPoint" />
            <Array as="points" />
          </mxGeometry>
        </mxCell>
      </root>
    </mxGraphModel>
  </diagram>
</mxfile>
